<svg xmlns="http://www.w3.org/2000/svg" width="83.144" height="85.863" viewBox="0 0 83.144 85.863">
  <path id="sygnet" d="M679.176,14106.757l20.83-20.784,1.671,1.667-20.83,20.788Zm-5.223-5.213,20.827-20.787,1.671,1.668-20.827,20.787Zm-5.226-5.212,20.827-20.791,1.675,1.671L670.4,14098Zm-5.226-5.215,20.83-20.788L686,14072l-20.827,20.787Zm-5.814-6.71a5.788,5.788,0,0,1-6.55-6.54c.018-1.31.035-2.255-.977-3.265v0c-1.009-1.006-1.958-.992-3.272-.971a5.783,5.783,0,0,1-6.55-6.536c.021-1.281.035-2.213-.9-3.193l1.6-1.6a5.989,5.989,0,0,1,1.569,4.829c-.021,1.311-.035,2.259.977,3.265s2.008,1,3.275.974a5.783,5.783,0,0,1,6.543,6.54c-.018,1.31-.035,2.255.974,3.265h0c1.009,1.009,1.958.994,3.279.974a6.041,6.041,0,0,1,4.837,1.564l-1.6,1.6C659.907,14084.375,658.976,14084.39,657.687,14084.407Zm44.67-7.949-.014-.05-8.183-2.605-2.6-8.119-.014-.05-7.538-2.4.69-2.148,8.65,2.754,2.6,8.123.014.046,8.183,2.606,2.758,8.632-2.156.687Zm-39.451,2.733a5.787,5.787,0,0,1-6.547-6.539c.021-1.311.035-2.256-.977-3.265s-1.954-.992-3.282-.971a5.78,5.78,0,0,1-6.536-6.532c.021-1.285.035-2.217-.9-3.2l1.6-1.6a6.018,6.018,0,0,1,1.569,4.833c-.021,1.313-.035,2.26.974,3.269s2.008,1,3.279.97a6.031,6.031,0,0,1,4.9,1.633v0a5.982,5.982,0,0,1,1.636,4.9c-.018,1.311-.032,2.256.977,3.265s1.962,1,3.286.974a6.039,6.039,0,0,1,4.833,1.568l-1.6,1.6C665.133,14079.163,664.2,14079.174,662.906,14079.191Zm44.677-7.949-.018-.049-8.179-2.6-2.6-8.123-.018-.049-7.535-2.4.69-2.152,8.646,2.755,2.6,8.122.014.046,8.183,2.606,2.762,8.632-2.156.688Zm-39.455,2.737a5.787,5.787,0,0,1-6.543-6.54c.021-1.313.035-2.259-.977-3.268s-1.958-.991-3.272-.971a5.779,5.779,0,0,1-6.547-6.536c.021-1.278.035-2.213-.906-3.2l1.6-1.593a5.994,5.994,0,0,1,1.565,4.829c-.018,1.311-.035,2.256.974,3.265h0c1.013,1.013,2.008,1,3.275.974a5.783,5.783,0,0,1,6.543,6.536c-.018,1.313-.035,2.26.977,3.269s1.958.991,3.275.97a6.044,6.044,0,0,1,4.84,1.569l-1.6,1.6C670.356,14073.948,669.425,14073.962,668.129,14073.979Zm44.677-7.952-.014-.046-8.183-2.606-2.6-8.122-.014-.05-7.538-2.4.69-2.153,8.65,2.759,2.6,8.119.014.049,8.183,2.606,2.758,8.629-2.156.687Zm-39.448,2.736a5.788,5.788,0,0,1-6.55-6.539c.021-1.313.035-2.259-.974-3.265s-2.011-1-3.275-.974a5.783,5.783,0,0,1-6.547-6.533c.021-1.281.039-2.213-.9-3.2l1.6-1.6a6.025,6.025,0,0,1,1.569,4.834c-.021,1.31-.039,2.259.974,3.264v0c1.009,1.006,1.958.991,3.272.971a5.783,5.783,0,0,1,6.55,6.536c-.021,1.31-.035,2.259.974,3.268h0c1.009,1.01,1.958,1,3.272.971a6.015,6.015,0,0,1,4.84,1.568l-1.6,1.6C675.582,14068.732,674.647,14068.743,673.358,14068.764Zm44.674-7.948-.014-.05-8.183-2.6-2.6-8.122-.018-.05-7.535-2.4.69-2.153,8.647,2.755,2.6,8.122.018.047,8.183,2.605,2.758,8.629-2.16.687Zm-42.408-1.749,5.109-5.1,1.738,1.738-5.109,5.1Zm-5.226-5.212,5.109-5.1,1.742,1.734-5.109,5.1Zm13.122-2.667,5.106-5.1,1.742,1.739-5.109,5.1Zm-18.345-2.549,5.106-5.1,1.742,1.738-5.106,5.1Zm13.119-2.666,5.109-5.1,1.739,1.738-5.106,5.1Zm-18.345-2.55,5.109-5.1,1.742,1.738-5.109,5.1Zm31.463-.116,5.109-5.1,1.742,1.735-5.109,5.1Zm-18.345-2.546,5.109-5.1,1.742,1.738-5.109,5.095Zm13.118-2.667,5.109-5.1,1.742,1.739-5.109,5.1Zm-18.341-2.549,5.106-5.1,1.746,1.738-5.109,5.1Zm13.118-2.666,5.109-5.1,1.742,1.738-5.109,5.1Zm-5.226-5.216,5.109-5.1,1.742,1.738-5.106,5.1Z" transform="translate(-639.435 -14022.564)" fill="#886b54"/>
</svg>
