<svg xmlns="http://www.w3.org/2000/svg" viewBox="0 0 190.29 109.07"><defs><style>.cls-1{fill:#a78467;}.cls-2{fill:none;}</style></defs><g id="Warstwa_2" data-name="Warstwa 2"><g id="Warstwa_1-2" data-name="Warstwa 1"><g id="Warstwa_2-2" data-name="Warstwa 2"><g id="Warstwa_1-2-2" data-name="Warstwa 1-2"><path class="cls-1" d="M108.72,82,81.29,54.52l27.43-27.44,27.44,27.44ZM82,54.52l26.72,26.72,26.73-26.72L108.72,27.79Z"/><path class="cls-1" d="M129.64,60.62c-1.16-1.11-2.29-1-4-.92-2,.13-4.38.29-6.6-1.92s-2.05-4.65-1.92-6.61c.12-1.74.19-2.89-1-4.08s-2.41-1.12-4.09-1c-2,.13-4.39.29-6.6-1.92s-2.05-4.65-1.92-6.6c.12-1.71.19-2.84-.92-4l.37-.34c1.26,1.33,1.17,2.67,1.05,4.38s-.27,4.16,1.78,6.21,4.36,1.9,6.21,1.78c1.67-.12,3.12-.21,4.47,1.14s1.27,2.73,1.15,4.47-.33,4.16,1.77,6.21,4.36,1.9,6.21,1.78,3.06-.2,4.38,1Z"/><path class="cls-1" d="M135.29,54.94c-1.16-1.11-2.29-1-4-.92-2,.13-4.38.3-6.6-1.92s-2-4.65-1.92-6.61c.11-1.74.19-2.89-1-4.08s-2.41-1.12-4.09-1c-2,.13-4.39.29-6.6-1.92s-2-4.64-1.92-6.6c.12-1.71.19-2.84-.92-4l.36-.35c1.27,1.33,1.17,2.68,1.06,4.38-.12,1.86-.28,4.17,1.77,6.22s4.36,1.89,6.22,1.77c1.67-.12,3.11-.21,4.47,1.14s1.26,2.73,1.15,4.47S123,49.69,125,51.74s4.36,1.91,6.22,1.78,3.06-.2,4.38,1.06Z"/><path class="cls-1" d="M124,66.29c-1.16-1.1-2.29-1-4-.92-1.95.13-4.38.3-6.6-1.92s-2.07-4.65-1.92-6.61c.11-1.73.18-2.88-1-4.07s-2.41-1.12-4.08-1c-2,.13-4.39.3-6.6-1.91s-2.05-4.65-1.92-6.6c.11-1.71.19-2.84-.92-4l.37-.36c1.26,1.32,1.17,2.67,1.06,4.38s-.28,4.16,1.77,6.21,4.36,1.9,6.21,1.77c1.68-.11,3.12-.21,4.47,1.15s1.27,2.73,1.15,4.47-.27,4.17,1.78,6.22,4.36,1.9,6.21,1.77,3.06-.19,4.38,1.06Z"/><path class="cls-1" d="M118.29,72c-1.16-1.1-2.29-1-4-.92-2,.13-4.39.3-6.6-1.92s-2-4.65-1.92-6.61c.11-1.74.19-2.88-1-4.08s-2.41-1.11-4.08-1c-2,.13-4.39.29-6.6-1.92s-2-4.64-1.92-6.6c.11-1.71.19-2.83-.92-4l.36-.34c1.26,1.32,1.17,2.67,1.06,4.38s-.28,4.16,1.77,6.21,4.36,1.9,6.22,1.77c1.67-.11,3.11-.21,4.46,1.15s1.27,2.73,1.16,4.47-.28,4.17,1.77,6.22,4.36,1.9,6.21,1.77,3.07-.2,4.39,1.06Z"/><path class="cls-1" d="M112.6,77.65c-1.16-1.11-2.29-1-4-.92-1.95.13-4.38.3-6.6-1.92s-2-4.65-1.92-6.61c.11-1.74.19-2.89-1-4.08S96.67,63,95,63.12c-2,.13-4.39.29-6.6-1.92s-2-4.64-1.92-6.6c.12-1.71.19-2.84-.92-4l.36-.35c1.26,1.33,1.17,2.68,1.06,4.38-.12,1.86-.28,4.17,1.77,6.22S93.1,62.74,95,62.62c1.67-.11,3.11-.21,4.47,1.15s1.26,2.72,1.15,4.46-.28,4.18,1.77,6.23,4.36,1.9,6.22,1.77,3.06-.2,4.38,1.06Z"/><path class="cls-1" d="M135.77,109.07,108.29,81.63,135.77,54.2,163.2,81.63ZM109,81.63l26.73,26.73L162.5,81.63,135.77,54.9Z"/><rect class="cls-1" x="114.56" y="75.91" width="0.5" height="2" transform="translate(-20.76 103.71) rotate(-45)"/><path class="cls-1" d="M136.91,99.36l-2.7-2.7.36-.35L137.29,99ZM131.52,94l-2.69-2.7.35-.35,2.69,2.69Zm-5.39-5.39-2.69-2.7.35-.35,2.69,2.69Zm-5.39-5.39-2.69-2.7.35-.35,2.69,2.69Z"/><rect class="cls-1" x="140.24" y="101.57" width="0.5" height="2" transform="translate(-31.38 129.38) rotate(-45)"/><rect class="cls-1" x="119.97" y="70.5" width="0.5" height="2" transform="translate(-15.35 105.95) rotate(-45)"/><path class="cls-1" d="M142.29,94l-2.7-2.7L140,91l2.69,2.69Zm-5.39-5.39-2.7-2.7.36-.35,2.73,2.64Zm-5.39-5.39-2.69-2.7.35-.35,2.69,2.69Zm-5.39-5.39-2.69-2.7.35-.35,2.69,2.69Z"/><rect class="cls-1" x="145.65" y="96.16" width="0.5" height="2" transform="translate(-25.97 131.62) rotate(-45)"/><rect class="cls-1" x="125.38" y="65.09" width="0.5" height="2" transform="translate(-9.94 108.19) rotate(-45)"/><path class="cls-1" d="M147.73,88.54l-2.7-2.7.36-.35,2.69,2.69Zm-5.39-5.39-2.7-2.7.36-.35,2.69,2.69ZM137,77.76l-2.66-2.7.36-.35,2.64,2.69Zm-5.39-5.39-2.69-2.7.35-.35L131.91,72Z"/><rect class="cls-1" x="151.06" y="90.76" width="0.5" height="2" transform="translate(-20.57 133.84) rotate(-44.99)"/><rect class="cls-1" x="130.8" y="59.69" width="0.5" height="2" transform="translate(-4.54 110.42) rotate(-44.99)"/><path class="cls-1" d="M153.14,83.13l-2.7-2.7.36-.35,2.69,2.69Zm-5.39-5.39L145.05,75l.36-.35,2.69,2.69Zm-5.39-5.39-2.7-2.7.36-.35,2.69,2.7ZM137,67l-2.68-2.74.36-.35,2.64,2.69Z"/><rect class="cls-1" x="156.46" y="85.35" width="0.5" height="2" transform="translate(-15.17 136.08) rotate(-44.99)"/><rect class="cls-1" x="103.12" y="13.63" width="38.3" height="0.5" transform="translate(25.99 90.52) rotate(-45)"/><path class="cls-1" d="M135.81,54.87,108.37,27.43,135.81,0l27.48,27.43ZM109.08,27.43l26.73,26.73,26.72-26.73L135.81.71Z"/><rect class="cls-1" x="113.98" y="21.85" width="0.5" height="11.15"/><rect class="cls-1" x="157.1" y="21.9" width="0.5" height="11.15"/><rect class="cls-1" x="119.34" y="16.57" width="0.5" height="21.79"/><rect class="cls-1" x="152.25" y="17.21" width="0.5" height="20.52"/><rect class="cls-1" x="125.01" y="10.9" width="0.5" height="33.02"/><rect class="cls-1" x="146.55" y="11.5" width="0.5" height="32.09"/><rect class="cls-1" x="130.36" y="5.65" width="0.5" height="43.66"/><rect class="cls-1" x="140.93" y="5.88" width="0.5" height="43.18"/><rect class="cls-1" x="135.76" y="0.35" width="0.5" height="53.96"/><path class="cls-1" d="M162.89,82,135.45,54.51l27.44-27.43,27.4,27.43ZM136.16,54.51l26.73,26.73,26.72-26.73L162.89,27.79Z"/><rect class="cls-1" x="154.51" y="43.5" width="0.5" height="38.3" transform="translate(1.03 127.78) rotate(-45)"/><rect class="cls-1" x="159.91" y="38.1" width="0.5" height="38.3" transform="translate(6.43 130.02) rotate(-45)"/><rect class="cls-1" x="165.32" y="32.68" width="0.5" height="38.3" transform="translate(11.84 132.26) rotate(-45)"/><rect class="cls-1" x="170.82" y="27.13" width="0.5" height="38.3" transform="translate(17.38 134.52) rotate(-45)"/></g></g><g id="Warstwa_2-3" data-name="Warstwa 2"><g id="Warstwa_1-2-3" data-name="Warstwa 1-2"><path class="cls-1" d="M54.52,81.93,27.08,54.49,54.52,27.06,82,54.49ZM27.79,54.49,54.52,81.22,81.24,54.49,54.52,27.77Z"/><rect class="cls-1" x="32.69" y="48.91" width="0.5" height="11.15"/><rect class="cls-1" x="75.81" y="48.96" width="0.5" height="11.15"/><rect class="cls-1" x="38.05" y="43.63" width="0.5" height="21.79"/><rect class="cls-1" x="70.96" y="44.26" width="0.5" height="20.52"/><rect class="cls-1" x="43.72" y="37.96" width="0.5" height="33.02"/><rect class="cls-1" x="65.26" y="38.56" width="0.5" height="32.09"/><rect class="cls-1" x="49.07" y="32.71" width="0.5" height="43.66"/><rect class="cls-1" x="59.64" y="32.94" width="0.5" height="43.18"/><rect class="cls-1" x="54.47" y="27.41" width="0.5" height="53.96"/><rect class="cls-1" x="21.78" y="94.91" width="38.3" height="0.5" transform="translate(-55.3 56.81) rotate(-45)"/><line class="cls-2" x1="27.04" y1="108.7" x2="54.47" y2="81.27"/><path class="cls-1" d="M27.43,109.06,0,81.58,27.43,54.14,54.87,81.58ZM.71,81.58,27.43,108.3,54.16,81.58,27.43,54.85Z"/><polygon class="cls-1" points="49.62 86.03 47.26 74.8 36.48 72.54 36.43 72.31 34.21 61.75 22.98 59.39 23.08 58.9 34.63 61.33 36.9 72.11 47.68 74.38 50.11 85.93 49.62 86.03"/><polygon class="cls-1" points="44.03 91.63 41.67 80.4 30.89 78.13 30.84 77.91 28.61 67.35 17.38 64.98 17.48 64.49 29.04 66.92 31.31 77.71 42.09 79.97 44.52 91.52 44.03 91.63"/><polygon class="cls-1" points="38.36 97.29 36 86.06 25.22 83.8 25.17 83.58 22.95 73.01 11.71 70.65 11.82 70.16 23.37 72.59 25.64 83.37 36.42 85.64 38.85 97.19 38.36 97.29"/><polygon class="cls-1" points="32.71 102.94 30.35 91.71 19.57 89.44 19.52 89.22 17.3 78.66 6.07 76.29 6.17 75.81 17.72 78.24 19.99 89.02 30.77 91.29 33.2 102.84 32.71 102.94"/><polygon class="cls-1" points="27.07 108.59 24.71 97.36 13.93 95.09 13.88 94.87 11.65 84.31 0.42 81.94 0.53 81.45 12.08 83.88 14.35 94.67 25.13 96.93 27.56 108.48 27.07 108.59"/></g></g></g></g></svg>