<svg xmlns="http://www.w3.org/2000/svg" viewBox="0 0 109.03 109.07"><defs><style>.cls-1{fill:#a78467;}</style></defs><g id="Warstwa_2" data-name="Warstwa 2"><g id="Warstwa_1-2" data-name="Warstwa 1"><path class="cls-1" d="M27.43,82,0,54.52,27.43,27.08,54.87,54.52ZM.71,54.52,27.43,81.24,54.16,54.52,27.43,27.79Z"/><path class="cls-1" d="M48.35,60.62c-1.16-1.11-2.29-1-4-.92-2,.13-4.38.29-6.6-1.92s-2.05-4.65-1.92-6.61c.12-1.74.19-2.89-1-4.08s-2.41-1.12-4.09-1c-1.95.13-4.39.29-6.6-1.92s-2.05-4.65-1.92-6.6c.12-1.71.19-2.84-.92-4l.37-.34c1.26,1.33,1.17,2.67,1.05,4.38s-.27,4.16,1.78,6.21,4.36,1.9,6.21,1.78c1.67-.12,3.12-.21,4.47,1.14s1.27,2.73,1.15,4.47S36,55.37,38.1,57.42s4.36,1.9,6.21,1.78,3.06-.2,4.38,1Z"/><path class="cls-1" d="M54,54.94c-1.16-1.11-2.29-1-4-.92-2,.13-4.38.3-6.6-1.92s-2.05-4.65-1.92-6.61c.11-1.74.19-2.89-1-4.08s-2.41-1.12-4.09-1c-1.95.13-4.39.29-6.6-1.92s-2-4.64-1.92-6.6c.12-1.71.19-2.84-.92-4l.36-.35c1.27,1.33,1.17,2.68,1.06,4.38-.12,1.86-.28,4.17,1.77,6.22s4.36,1.89,6.22,1.77c1.67-.12,3.11-.21,4.47,1.14s1.26,2.73,1.15,4.47-.28,4.17,1.77,6.22,4.36,1.91,6.22,1.78,3.06-.2,4.38,1.06Z"/><path class="cls-1" d="M42.67,66.29c-1.16-1.1-2.29-1-4-.92-1.95.13-4.38.3-6.6-1.92S30,58.8,30.15,56.84c.11-1.73.18-2.88-1-4.07s-2.41-1.12-4.08-1c-2,.13-4.39.3-6.6-1.91s-2.05-4.65-1.92-6.6c.11-1.71.19-2.84-.92-4L16,38.9c1.26,1.32,1.17,2.67,1.06,4.38s-.28,4.16,1.77,6.21,4.36,1.9,6.21,1.77c1.68-.11,3.12-.21,4.47,1.15s1.27,2.73,1.15,4.47-.27,4.17,1.78,6.22,4.36,1.9,6.21,1.77,3.06-.19,4.38,1.06Z"/><path class="cls-1" d="M37,72c-1.16-1.1-2.29-1-4-.92-2,.13-4.39.3-6.6-1.92s-2.05-4.65-1.92-6.61c.11-1.74.19-2.88-1-4.08s-2.41-1.11-4.08-1c-2,.13-4.39.29-6.6-1.92s-2-4.64-1.92-6.6c.11-1.71.19-2.83-.92-4l.36-.34c1.26,1.32,1.17,2.67,1.06,4.38s-.28,4.16,1.77,6.21,4.36,1.9,6.22,1.77c1.67-.11,3.11-.21,4.46,1.15s1.27,2.73,1.16,4.47-.28,4.17,1.77,6.22,4.36,1.9,6.21,1.77,3.07-.2,4.39,1.06Z"/><path class="cls-1" d="M31.31,77.65c-1.16-1.11-2.29-1-4-.92-1.95.13-4.38.3-6.6-1.92s-2.05-4.65-1.92-6.61c.11-1.74.19-2.89-1-4.08s-2.41-1.11-4.09-1c-2,.13-4.39.29-6.6-1.92s-2-4.64-1.92-6.6c.12-1.71.19-2.84-.92-4l.36-.35c1.26,1.33,1.17,2.68,1.06,4.38-.12,1.86-.28,4.17,1.77,6.22s4.36,1.89,6.22,1.77c1.67-.11,3.11-.21,4.47,1.15s1.26,2.72,1.15,4.46-.28,4.18,1.77,6.23,4.36,1.9,6.22,1.77c1.71-.11,3.06-.2,4.38,1.06Z"/><path class="cls-1" d="M54.48,109.07,27,81.63,54.48,54.2,81.91,81.63ZM27.75,81.63l26.73,26.73L81.21,81.63,54.48,54.9Z"/><rect class="cls-1" x="33.28" y="75.91" width="0.5" height="2" transform="translate(-44.57 46.24) rotate(-45)"/><path class="cls-1" d="M55.62,99.36l-2.7-2.7.36-.35L56,99ZM50.23,94l-2.69-2.7.35-.35,2.69,2.69Zm-5.39-5.39-2.69-2.7.35-.35,2.69,2.69Zm-5.39-5.39-2.69-2.7.35-.35,2.69,2.69Z"/><rect class="cls-1" x="58.95" y="101.58" width="0.5" height="2" transform="translate(-55.2 71.9) rotate(-45)"/><rect class="cls-1" x="38.69" y="70.5" width="0.5" height="2" transform="translate(-39.16 48.48) rotate(-45)"/><path class="cls-1" d="M61,94l-2.7-2.7.36-.35,2.69,2.69Zm-5.39-5.39-2.7-2.7.36-.35L56,88.2Zm-5.39-5.39-2.69-2.7.35-.35,2.69,2.69Zm-5.39-5.39-2.69-2.7.35-.35,2.69,2.69Z"/><rect class="cls-1" x="64.36" y="96.17" width="0.5" height="2" transform="translate(-49.79 74.14) rotate(-45)"/><rect class="cls-1" x="44.1" y="65.09" width="0.5" height="2" transform="translate(-33.75 50.72) rotate(-45)"/><path class="cls-1" d="M66.44,88.54l-2.7-2.7.36-.35,2.69,2.69Zm-5.39-5.39-2.7-2.7.36-.35,2.69,2.69Zm-5.39-5.39L53,75.06l.36-.35L56,77.4Zm-5.39-5.39-2.69-2.7.35-.35L50.62,72Z"/><rect class="cls-1" x="69.77" y="90.76" width="0.5" height="2" transform="translate(-44.37 76.37) rotate(-44.99)"/><rect class="cls-1" x="49.51" y="59.68" width="0.5" height="2" transform="translate(-28.33 52.95) rotate(-44.99)"/><path class="cls-1" d="M71.85,83.13l-2.7-2.7.36-.35,2.69,2.69Zm-5.39-5.39L63.76,75l.36-.35,2.69,2.69Zm-5.39-5.39-2.7-2.7.36-.35L61.42,72ZM55.68,67,53,64.26l.36-.35L56,66.6Z"/><rect class="cls-1" x="75.18" y="85.35" width="0.5" height="2" transform="translate(-38.97 78.61) rotate(-44.99)"/><rect class="cls-1" x="21.83" y="13.64" width="38.3" height="0.5" transform="translate(2.18 33.04) rotate(-45)"/><path class="cls-1" d="M54.52,54.87,27.08,27.43,54.52,0,82,27.43ZM27.79,27.43,54.52,54.16,81.24,27.43,54.52.71Z"/><rect class="cls-1" x="32.69" y="21.85" width="0.5" height="11.15"/><rect class="cls-1" x="75.81" y="21.9" width="0.5" height="11.15"/><rect class="cls-1" x="38.05" y="16.57" width="0.5" height="21.79"/><rect class="cls-1" x="70.96" y="17.21" width="0.5" height="20.52"/><rect class="cls-1" x="43.72" y="10.9" width="0.5" height="33.02"/><rect class="cls-1" x="65.26" y="11.5" width="0.5" height="32.09"/><rect class="cls-1" x="49.07" y="5.65" width="0.5" height="43.66"/><rect class="cls-1" x="59.64" y="5.88" width="0.5" height="43.18"/><rect class="cls-1" x="54.47" y="0.35" width="0.5" height="53.96"/><path class="cls-1" d="M81.6,82,54.16,54.51,81.6,27.08,109,54.51ZM54.87,54.51,81.6,81.24l26.72-26.73L81.6,27.79Z"/><rect class="cls-1" x="73.22" y="43.5" width="0.5" height="38.3" transform="translate(-22.78 70.3) rotate(-45)"/><rect class="cls-1" x="78.62" y="38.09" width="0.5" height="38.3" transform="translate(-17.37 72.54) rotate(-45)"/><rect class="cls-1" x="84.03" y="32.68" width="0.5" height="38.3" transform="translate(-11.96 74.78) rotate(-45)"/><rect class="cls-1" x="89.52" y="27.14" width="0.5" height="38.3" transform="translate(-6.43 77.03) rotate(-45)"/></g></g></svg>