<svg xmlns="http://www.w3.org/2000/svg" viewBox="0 0 298.64 298.61"><g id="Warstwa_2" data-name="Warstwa 2"><g id="Warstwa_1-2" data-name="Warstwa 1"><path d="M217,190.27l-27.44-27.43L217,135.4l27.43,27.44Zm-26.73-27.43L217,189.56l26.73-26.72L217,136.11Z"/><rect x="211.42" y="184.16" width="11.15" height="0.5"/><rect x="211.46" y="141.04" width="11.15" height="0.5"/><rect x="206.14" y="178.81" width="21.79" height="0.5"/><rect x="206.77" y="145.89" width="20.52" height="0.5"/><rect x="200.46" y="173.13" width="33.02" height="0.5"/><rect x="201.07" y="151.59" width="32.09" height="0.5"/><rect x="195.21" y="167.78" width="43.66" height="0.5"/><rect x="195.44" y="157.22" width="43.18" height="0.5"/><rect x="189.92" y="162.38" width="53.96" height="0.5"/><path d="M108.68,244.43,54.16,189.92l54.52-54.52,54.51,54.52ZM54.87,189.92l53.81,53.81,53.8-53.81-53.8-53.81Z"/><rect x="152.81" y="180.05" width="0.5" height="19.65"/><rect x="66.07" y="178.1" width="0.5" height="23.69"/><rect x="141.53" y="168.87" width="0.5" height="42.27"/><rect x="75.75" y="168.42" width="0.5" height="42.75"/><rect x="130.31" y="157.55" width="0.5" height="64.66"/><rect x="87.15" y="156.95" width="0.5" height="66.01"/><rect x="119.49" y="147" width="0.5" height="86.03"/><rect x="98.39" y="145.78" width="0.5" height="88.02"/><rect x="108.71" y="136.08" width="0.5" height="108.27"/><path d="M135.76,163.19l-27.44-27.43,27.44-27.44,27.43,27.44ZM109,135.76l26.73,26.72,26.72-26.72L135.76,109Z"/><rect x="113.96" y="130.15" width="0.5" height="2"/><rect x="113.96" y="134.53" width="0.5" height="2.38"/><rect x="113.96" y="139.3" width="0.5" height="2"/><rect x="157.08" y="130.19" width="0.5" height="2"/><rect x="157.08" y="134.58" width="0.5" height="2.38"/><rect x="157.08" y="139.34" width="0.5" height="2"/><rect x="119.32" y="124.87" width="0.5" height="2"/><path d="M119.82,141.1h-.5v-3.56h.5Zm0-7.12h-.5v-3.55h.5Z"/><rect x="119.32" y="144.66" width="0.5" height="2"/><rect x="152.23" y="125.5" width="0.5" height="2"/><path d="M152.73,140.72h-.5v-3.3h.5Zm0-6.61h-.5v-3.3h.5Z"/><rect x="152.23" y="144.02" width="0.5" height="2"/><rect x="124.99" y="119.2" width="0.5" height="2"/><path d="M125.49,146.07H125v-4.14h.5Zm0-8.29H125v-4.15h.5Zm0-8.29H125v-4.15h.5Z"/><rect x="124.99" y="150.22" width="0.5" height="2"/><rect x="146.53" y="119.8" width="0.5" height="2"/><path d="M147,145.88h-.5v-4h.5Zm0-8h-.5v-4h.5Zm0-8h-.5v-4h.5Z"/><rect x="146.53" y="149.89" width="0.5" height="2"/><rect x="130.4" y="114.17" width="0.5" height="2"/><path d="M130.9,151.42h-.5V147h.5Zm0-8.81h-.5V138.2h.5Zm0-8.82h-.5v-4.4h.5Zm0-8.81h-.5v-4.41h.5Z"/><rect x="130.4" y="155.83" width="0.5" height="2"/><rect x="140.91" y="114.17" width="0.5" height="2"/><path d="M141.41,151h-.5v-4.35h.5Zm0-8.71h-.5v-4.35h.5Zm0-8.7h-.5v-4.36h.5Zm0-8.71h-.5v-4.35h.5Z"/><rect x="140.91" y="155.35" width="0.5" height="2"/><rect x="135.74" y="108.65" width="0.5" height="2"/><path d="M136.24,156.76h-.5v-3.84h.5Zm0-7.68h-.5v-3.84h.5Zm0-7.69h-.5v-3.84h.5Zm0-7.68h-.5v-3.85h.5Zm0-7.69h-.5v-3.84h.5Zm0-7.68h-.5v-3.85h.5Z"/><rect x="135.74" y="160.61" width="0.5" height="2"/><path d="M162.84,190.27,135.4,162.84l27.44-27.44,27.43,27.44Zm-26.73-27.43,26.73,26.72,26.72-26.72-26.72-26.73Z"/><path d="M141.89,169l-.35-.36c1.33-1.27,2.68-1.17,4.38-1.06,1.86.12,4.17.27,6.22-1.77s1.89-4.36,1.77-6.22c-.11-1.67-.21-3.11,1.15-4.47s2.73-1.26,4.46-1.15,4.18.28,6.23-1.77,1.9-4.36,1.77-6.22-.2-3.06,1.06-4.38l.36.35c-1.11,1.16-1,2.29-.92,4,.13,1.95.3,4.38-1.92,6.6s-4.65,2.05-6.61,1.92c-1.74-.11-2.89-.19-4.08,1s-1.12,2.41-1,4.09c.13,2,.29,4.39-1.92,6.6s-4.65,2.05-6.6,1.92C144.18,167.94,143.05,167.87,141.89,169Z"/><path d="M136.21,163.3l-.34-.36c1.32-1.26,2.67-1.17,4.38-1.06s4.16.28,6.21-1.77,1.89-4.36,1.77-6.22c-.11-1.66-.21-3.09,1.12-4.44l.05,0c1.33-1.34,2.71-1.25,4.44-1.14s4.18.28,6.23-1.77,1.9-4.36,1.77-6.22-.2-3.06,1.06-4.38l.36.35c-1.1,1.16-1,2.29-.92,4,.13,1.95.3,4.39-1.92,6.6s-4.65,2.05-6.61,1.92c-1.74-.11-2.88-.19-4.08,1l0,0c-1.16,1.19-1.08,2.4-1,4.06.13,2,.29,4.39-1.92,6.6s-4.64,2-6.6,1.92C138.5,162.27,137.38,162.19,136.21,163.3Z"/><path d="M147.57,174.66l-.35-.37c1.33-1.26,2.68-1.17,4.38-1,1.86.12,4.17.27,6.21-1.78s1.9-4.36,1.78-6.21c-.12-1.67-.21-3.12,1.14-4.47l0,0c1.35-1.32,2.71-1.24,4.43-1.12s4.17.27,6.22-1.78,1.9-4.36,1.78-6.21-.2-3.06,1.05-4.38l.37.34c-1.11,1.16-1,2.3-.92,4,.13,1.95.29,4.38-1.92,6.6s-4.65,2-6.61,1.92c-1.73-.11-2.87-.19-4,1l0,0c-1.2,1.2-1.12,2.41-1,4.08.14,2,.3,4.4-1.91,6.61s-4.65,2-6.6,1.92C149.86,173.62,148.73,173.55,147.57,174.66Z"/><path d="M153.24,180.33l-.34-.36c1.32-1.26,2.67-1.17,4.38-1.06s4.16.28,6.21-1.77,1.9-4.36,1.77-6.21c-.11-1.66-.2-3.1,1.12-4.44l0,0c1.35-1.35,2.73-1.26,4.47-1.14s4.17.27,6.22-1.78,1.9-4.36,1.78-6.21-.2-3.06,1.05-4.38l.36.34c-1.1,1.16-1,2.29-.92,4,.14,2,.3,4.38-1.92,6.6s-4.64,2.05-6.6,1.91c-1.73-.11-2.87-.18-4.06,1l0,0c-1.2,1.2-1.12,2.41-1,4.08.13,2,.3,4.39-1.91,6.61s-4.65,2-6.6,1.91C155.54,179.3,154.41,179.22,153.24,180.33Z"/><path d="M158.92,186l-.34-.36c1.32-1.26,2.67-1.17,4.38-1.06s4.16.28,6.21-1.77,1.9-4.36,1.77-6.21c-.11-1.67-.21-3.1,1.12-4.45l0,0c1.35-1.35,2.73-1.26,4.47-1.15s4.17.28,6.22-1.77,1.9-4.36,1.77-6.21-.2-3.07,1.06-4.39l.36.35c-1.1,1.16-1,2.29-.92,4,.13,2,.3,4.39-1.92,6.6s-4.65,2.05-6.61,1.92c-1.72-.11-2.87-.19-4.05,1l0,0c-1.19,1.19-1.11,2.4-1,4.08.13,2,.29,4.39-1.92,6.6s-4.64,2.05-6.6,1.92C161.22,185,160.09,184.9,158.92,186Z"/><path d="M135.76,109,108.32,81.6l27.44-27.44L163.19,81.6ZM109,81.6l26.73,26.72L162.48,81.6,135.76,54.87Z"/><path d="M114.81,87.74l-.35-.37c1.33-1.26,2.68-1.17,4.38-1.05,1.86.12,4.17.27,6.22-1.78s1.89-4.35,1.77-6.21c-.11-1.67-.21-3.12,1.14-4.47s2.73-1.27,4.47-1.15,4.17.28,6.23-1.77,1.89-4.37,1.77-6.22-.2-3.06,1.06-4.38l.36.34c-1.11,1.17-1,2.3-.92,4,.13,2,.29,4.38-1.92,6.6s-4.65,2-6.61,1.92c-1.74-.12-2.89-.19-4.08,1s-1.12,2.41-1,4.08c.13,2,.29,4.4-1.92,6.61s-4.64,2-6.6,1.92C117.1,86.7,116,86.63,114.81,87.74Z"/><path d="M109.13,82.06l-.35-.36c1.33-1.26,2.68-1.17,4.38-1.06,1.86.12,4.17.27,6.22-1.77s1.89-4.36,1.77-6.22c-.11-1.67-.21-3.11,1.15-4.47S125,66.92,126.76,67s4.18.28,6.23-1.77,1.9-4.36,1.77-6.22-.2-3.06,1.06-4.38l.36.35c-1.1,1.16-1,2.29-.92,4,.13,2,.3,4.39-1.92,6.6s-4.65,2-6.61,1.92c-1.74-.11-2.89-.19-4.08,1s-1.11,2.41-1,4.09c.13,1.95.29,4.39-1.92,6.6s-4.64,2-6.6,1.92C111.42,81,110.3,81,109.13,82.06Z"/><path d="M120.48,93.41l-.34-.36c1.33-1.26,2.67-1.17,4.38-1.06,1.86.13,4.17.28,6.21-1.77s1.9-4.36,1.78-6.21c-.12-1.66-.21-3.1,1.11-4.44h0l0,0c1.36-1.35,2.73-1.26,4.47-1.14s4.17.27,6.22-1.78,1.9-4.36,1.78-6.21-.2-3.06,1-4.38l.37.34c-1.11,1.16-1,2.29-.92,4,.13,1.95.29,4.38-1.92,6.6s-4.65,2-6.61,1.91c-1.74-.11-2.89-.18-4.08,1s-1.12,2.41-1,4.08c.14,2,.3,4.39-1.91,6.61s-4.65,2-6.6,1.91C122.78,92.38,121.65,92.3,120.48,93.41Z"/><path d="M126.16,99.09l-.34-.36c1.32-1.26,2.67-1.17,4.38-1.06,1.86.12,4.16.28,6.21-1.77s1.9-4.36,1.77-6.21c-.11-1.67-.2-3.1,1.12-4.45h0l0,0c1.36-1.35,2.73-1.26,4.47-1.15s4.17.28,6.22-1.77,1.9-4.36,1.77-6.21-.19-3.07,1.06-4.39l.36.35c-1.1,1.16-1,2.29-.92,4,.14,2,.3,4.39-1.92,6.6s-4.64,2-6.6,1.92c-1.75-.11-2.89-.19-4.08,1s-1.12,2.4-1,4.08c.13,2,.3,4.39-1.91,6.6s-4.65,2-6.6,1.92C128.46,98.06,127.33,98,126.16,99.09Z"/><path d="M131.84,104.77l-.34-.36c1.32-1.26,2.67-1.17,4.38-1.06s4.16.28,6.21-1.77,1.9-4.36,1.77-6.22c-.11-1.66-.21-3.09,1.12-4.44l.06-.06c1.34-1.32,2.71-1.23,4.44-1.12s4.17.28,6.22-1.77,1.9-4.36,1.77-6.22c-.11-1.71-.2-3.06,1.06-4.38l.36.35c-1.1,1.16-1,2.29-.92,4,.13,2,.3,4.39-1.92,6.6s-4.65,2.05-6.61,1.92c-1.73-.11-2.88-.19-4.07,1h0c-1.19,1.19-1.11,2.4-1,4.08.13,2,.29,4.39-1.92,6.6s-4.64,2-6.6,1.92C134.13,103.74,133,103.66,131.84,104.77Z"/><rect x="205.98" y="224.88" width="38.3" height="0.5" transform="translate(-93.25 225.13) rotate(-45)"/><rect x="200.57" y="219.47" width="38.3" height="0.5" transform="translate(-91.01 219.72) rotate(-45)"/><rect x="195.16" y="214.06" width="38.3" height="0.5" transform="translate(-88.77 214.31) rotate(-45)"/><rect x="189.75" y="208.65" width="38.3" height="0.5" transform="translate(-86.53 208.9) rotate(-45)"/><path d="M189.92,217.35l-27.44-27.43,27.44-27.44,27.43,27.44Zm-26.73-27.43,26.73,26.73,26.73-26.73-26.73-26.73Z"/><rect x="184.2" y="210.62" width="2" height="0.5" transform="translate(-94.86 192.72) rotate(-45)"/><path d="M188.78,207.64l-.35-.35,2.69-2.7.35.36Zm5.39-5.39-.36-.35,2.7-2.7.35.36Zm5.39-5.39-.36-.35,2.7-2.7.35.36Zm5.39-5.39-.36-.35,2.7-2.7.35.36Z"/><rect x="209.87" y="184.95" width="2" height="0.5" transform="translate(-69.19 203.35) rotate(-45)"/><rect x="178.79" y="205.21" width="2" height="0.5" transform="translate(-92.62 187.31) rotate(-45)"/><path d="M183.37,202.23l-.35-.35,2.69-2.7.35.36Zm5.39-5.39-.36-.35,2.7-2.7.35.36Zm5.39-5.39-.36-.35,2.7-2.7.35.36Zm5.39-5.39-.36-.35,2.7-2.69.35.35Z"/><rect x="204.46" y="179.54" width="2" height="0.5" transform="translate(-66.95 197.94) rotate(-45)"/><rect x="173.38" y="199.8" width="2" height="0.5" transform="translate(-90.38 181.9) rotate(-45)"/><path d="M178,196.82l-.35-.35,2.69-2.7.35.36Zm5.39-5.39-.36-.35,2.7-2.7.35.36Zm5.39-5.39-.36-.35,2.7-2.7.35.36Zm5.39-5.39-.36-.35,2.7-2.69.35.35Z"/><rect x="199.05" y="174.13" width="2" height="0.5" transform="translate(-64.71 192.53) rotate(-45)"/><rect x="167.97" y="194.39" width="2" height="0.5" transform="translate(-88.14 176.49) rotate(-45)"/><path d="M172.55,191.41l-.35-.35,2.69-2.7.35.36Zm5.39-5.39-.36-.35,2.7-2.7.35.36Zm5.39-5.39-.36-.35,2.7-2.7.35.36Zm5.39-5.39-.36-.35,2.7-2.69.35.35Z"/><rect x="193.64" y="168.72" width="2" height="0.5" transform="translate(-62.47 187.12) rotate(-45)"/><path d="M162.87,82,135.44,54.55l27.43-27.43,27.44,27.43ZM136.15,54.55l26.72,26.73L189.6,54.55,162.87,27.82Z"/><rect x="157.16" y="75.25" width="2" height="0.5" transform="translate(-7.06 133.95) rotate(-45)"/><path d="M161.73,72.27l-.35-.35,2.7-2.69.35.35Zm5.39-5.39-.35-.35,2.69-2.69.36.35Zm5.39-5.38-.35-.36,2.69-2.69.36.35Zm5.39-5.39-.35-.36,2.69-2.69.36.35Z"/><rect x="182.82" y="49.58" width="2" height="0.5" transform="translate(18.6 144.58) rotate(-45)"/><rect x="151.75" y="69.84" width="2" height="0.5" transform="translate(-4.82 128.54) rotate(-45)"/><path d="M156.32,66.86l-.35-.35,2.7-2.69.35.35Zm5.39-5.38-.35-.36,2.7-2.69.35.35Zm5.39-5.39-.35-.36L169.44,53l.36.35Zm5.39-5.39-.35-.36,2.69-2.69.36.35Z"/><rect x="177.41" y="44.17" width="2" height="0.5" transform="translate(20.84 139.17) rotate(-45)"/><rect x="146.34" y="64.43" width="2" height="0.5" transform="translate(-2.58 123.13) rotate(-45)"/><path d="M150.92,61.45l-.36-.35,2.7-2.69.35.35Zm5.38-5.38-.35-.36,2.7-2.69.35.35Zm5.39-5.39-.35-.36,2.7-2.69.35.35Zm5.39-5.39-.35-.36,2.69-2.69.36.35Z"/><rect x="172" y="38.76" width="2" height="0.5" transform="translate(23.08 133.76) rotate(-45)"/><rect x="140.93" y="59.02" width="2" height="0.5" transform="translate(-0.34 117.72) rotate(-45)"/><path d="M145.5,56l-.35-.35,2.7-2.69.35.35Zm5.39-5.38-.35-.36,2.7-2.69.35.35Zm5.39-5.39-.35-.36,2.69-2.69.36.35Zm5.39-5.39-.35-.36L164,36.83l.36.35Z"/><rect x="166.59" y="33.35" width="2" height="0.5" transform="translate(25.33 128.35) rotate(-45)"/><path d="M271.2,190.32l-27.43-27.44,27.43-27.43,27.44,27.43Zm-26.72-27.44,26.72,26.73,26.73-26.73L271.2,136.15Z"/><rect x="265.49" y="183.58" width="2" height="0.5" transform="translate(-51.94 242.28) rotate(-45)"/><path d="M270.06,180.6l-.35-.35,2.7-2.69.35.35Zm5.39-5.38-.35-.36,2.7-2.69.35.35Zm5.39-5.39-.35-.36,2.69-2.69.36.35Zm5.39-5.39-.35-.36,2.69-2.69.36.35Z"/><rect x="291.15" y="157.91" width="2" height="0.5" transform="translate(-26.27 252.91) rotate(-45)"/><rect x="260.08" y="178.17" width="2" height="0.5" transform="translate(-49.69 236.87) rotate(-45)"/><path d="M264.66,175.19l-.36-.35,2.7-2.69.35.35Zm5.38-5.38-.35-.36,2.7-2.69.35.35Zm5.39-5.39-.35-.36,2.7-2.69.35.35Zm5.39-5.39-.35-.36,2.69-2.69.36.35Z"/><rect x="285.74" y="152.5" width="2" height="0.5" transform="translate(-24.03 247.5) rotate(-45)"/><rect x="254.67" y="172.76" width="2" height="0.5" transform="translate(-47.45 231.46) rotate(-45)"/><path d="M259.25,169.79l-.36-.36,2.7-2.69.35.35Zm5.38-5.39-.35-.36,2.7-2.69.35.35ZM270,159l-.35-.36,2.7-2.69.35.35Zm5.39-5.39-.35-.36,2.69-2.69.36.35Z"/><rect x="280.33" y="147.09" width="2" height="0.5" transform="translate(-21.79 242.09) rotate(-45)"/><rect x="249.26" y="167.35" width="2" height="0.5" transform="translate(-45.21 226.05) rotate(-45)"/><path d="M253.84,164.38l-.36-.36,2.7-2.69.35.35Zm5.39-5.39-.36-.36,2.7-2.69.35.35Zm5.38-5.39-.35-.36,2.7-2.69.35.35Zm5.39-5.39-.35-.36,2.7-2.69.35.35Z"/><rect x="274.92" y="141.68" width="2" height="0.5" transform="translate(-19.55 236.68) rotate(-45)"/><path d="M108.68,82,81.24,54.52l27.44-27.44,27.43,27.44ZM82,54.52l26.73,26.72L135.4,54.52,108.68,27.79Z"/><rect x="103.09" y="75.84" width="11.15" height="0.5"/><rect x="103.14" y="32.72" width="11.15" height="0.5"/><rect x="97.81" y="70.48" width="21.79" height="0.5"/><rect x="98.45" y="37.57" width="20.52" height="0.5"/><rect x="92.14" y="64.81" width="33.02" height="0.5"/><rect x="92.74" y="43.27" width="32.09" height="0.5"/><rect x="86.89" y="59.46" width="43.66" height="0.5"/><rect x="87.12" y="48.89" width="43.18" height="0.5"/><rect x="81.6" y="54.06" width="53.96" height="0.5"/><path d="M244.08,217.35l-27.43-27.43,27.43-27.44,27.43,27.44Zm-26.73-27.43,26.73,26.73,26.73-26.73-26.73-26.73Z"/><polygon points="221.89 194.38 221.4 194.27 223.84 182.72 234.62 180.45 236.88 169.67 248.44 167.24 248.54 167.73 237.31 170.09 235.04 180.87 234.82 180.92 224.26 183.15 221.89 194.38"/><polygon points="227.49 199.97 227 199.87 229.43 188.32 240.21 186.04 242.48 175.26 254.03 172.84 254.13 173.32 242.9 175.69 240.63 186.47 240.41 186.51 229.85 188.74 227.49 199.97"/><polygon points="233.15 205.64 232.66 205.54 235.1 193.98 245.88 191.71 248.15 180.93 259.7 178.5 259.8 178.99 248.57 181.35 246.3 192.13 246.08 192.18 235.52 194.41 233.15 205.64"/><polygon points="238.8 211.28 238.31 211.18 240.74 199.63 251.53 197.36 253.79 186.58 265.34 184.15 265.44 184.64 254.21 187 251.95 197.78 251.72 197.83 241.16 200.05 238.8 211.28"/><polygon points="244.44 216.93 243.96 216.83 246.39 205.28 257.17 203 259.44 192.22 270.99 189.79 271.09 190.28 259.86 192.65 257.59 203.43 257.37 203.47 246.81 205.7 244.44 216.93"/><path d="M54.52,190.27,0,135.76,54.52,81.24,109,135.76ZM.71,135.76l53.81,53.8,53.8-53.8L54.52,82Z"/><path d="M44,179.37l-.52-.54A4.63,4.63,0,0,1,46,177.6l19.32-.41a3.08,3.08,0,0,0,2.78-2.82l.75-19.55a4.55,4.55,0,0,1,4-4l20-1.12a3.09,3.09,0,0,0,2.79-2.83l.79-19.58a4.59,4.59,0,0,1,1.17-2.58l.56.5a3.85,3.85,0,0,0-1,2.14l-.79,19.57a3.84,3.84,0,0,1-3.49,3.53l-20,1.11a3.83,3.83,0,0,0-3.28,3.34l-.74,19.53a3.84,3.84,0,0,1-3.49,3.53l-19.31.41A3.82,3.82,0,0,0,44,179.37Z"/><path d="M33.14,168.55l-.52-.54a4.63,4.63,0,0,1,2.57-1.23l19.32-.41a3.08,3.08,0,0,0,2.78-2.82L58,144a4.55,4.55,0,0,1,4-4l20-1.12A3.09,3.09,0,0,0,84.8,136l.79-19.58a4.53,4.53,0,0,1,1.18-2.58l.55.5a3.85,3.85,0,0,0-1,2.14l-.79,19.57a3.84,3.84,0,0,1-3.49,3.53l-20,1.11a3.83,3.83,0,0,0-3.28,3.34L58,163.59a3.83,3.83,0,0,1-3.49,3.53l-19.3.41A3.81,3.81,0,0,0,33.14,168.55Z"/><path d="M22.27,157.68l-.52-.54a4.55,4.55,0,0,1,2.57-1.22l19.32-.42a3.07,3.07,0,0,0,2.78-2.82l.75-19.55a4.57,4.57,0,0,1,3.95-4l20-1.12a3.07,3.07,0,0,0,2.79-2.82l.79-19.59A4.6,4.6,0,0,1,75.9,103l.55.51a3.79,3.79,0,0,0-1,2.13l-.79,19.57a3.82,3.82,0,0,1-3.48,3.53l-20,1.12a3.79,3.79,0,0,0-3.28,3.33l-.75,19.54a3.82,3.82,0,0,1-3.48,3.52l-19.31.41A3.81,3.81,0,0,0,22.27,157.68Z"/><path d="M11.45,146.86l-.52-.54a4.55,4.55,0,0,1,2.57-1.22l19.32-.42a3.07,3.07,0,0,0,2.78-2.82l.75-19.55a4.57,4.57,0,0,1,4-4l20-1.12a3.07,3.07,0,0,0,2.79-2.82l.79-19.59a4.6,4.6,0,0,1,1.18-2.58l.55.51a3.79,3.79,0,0,0-1,2.13l-.79,19.58a3.82,3.82,0,0,1-3.48,3.52l-20,1.12a3.79,3.79,0,0,0-3.28,3.33l-.75,19.54a3.82,3.82,0,0,1-3.48,3.52l-19.31.41A3.91,3.91,0,0,0,11.45,146.86Z"/><path d="M.73,136.14l-.52-.54a4.55,4.55,0,0,1,2.57-1.22L22.1,134a3.08,3.08,0,0,0,2.78-2.82l.75-19.55a4.57,4.57,0,0,1,3.95-4l20-1.12a3.07,3.07,0,0,0,2.79-2.83L53.18,84a4.53,4.53,0,0,1,1.18-2.58l.55.5a3.85,3.85,0,0,0-1,2.14l-.79,19.57a3.83,3.83,0,0,1-3.48,3.53l-20,1.12a3.79,3.79,0,0,0-3.27,3.33l-.75,19.54a3.83,3.83,0,0,1-3.49,3.52l-19.3.41A3.81,3.81,0,0,0,.73,136.14Z"/><path d="M162.86,298.61,108.34,244.1l54.52-54.52,54.51,54.52ZM109.05,244.1l53.81,53.81,53.8-53.81-53.8-53.81Z"/><path d="M152.3,287.71l-.52-.54a4.63,4.63,0,0,1,2.57-1.23l19.32-.41a3.08,3.08,0,0,0,2.78-2.82l.75-19.55a4.56,4.56,0,0,1,4-4l20-1.12a3.09,3.09,0,0,0,2.79-2.83l.79-19.58a4.53,4.53,0,0,1,1.18-2.58l.55.5a3.85,3.85,0,0,0-1,2.14l-.79,19.57a3.83,3.83,0,0,1-3.48,3.53l-20,1.12a3.79,3.79,0,0,0-3.27,3.33l-.75,19.54a3.83,3.83,0,0,1-3.49,3.52l-19.3.41A3.81,3.81,0,0,0,152.3,287.71Z"/><path d="M141.48,276.89l-.52-.54a4.63,4.63,0,0,1,2.57-1.23l19.32-.41a3.08,3.08,0,0,0,2.78-2.82l.75-19.55a4.57,4.57,0,0,1,4-4l20-1.12a3.07,3.07,0,0,0,2.79-2.82l.79-19.59a4.53,4.53,0,0,1,1.18-2.58l.55.5a3.85,3.85,0,0,0-1,2.14l-.79,19.57a3.83,3.83,0,0,1-3.48,3.53l-20,1.12a3.79,3.79,0,0,0-3.28,3.33l-.75,19.54a3.83,3.83,0,0,1-3.49,3.52l-19.3.41A3.81,3.81,0,0,0,141.48,276.89Z"/><path d="M130.61,266l-.52-.55a4.55,4.55,0,0,1,2.57-1.22l19.32-.42a3.06,3.06,0,0,0,2.78-2.82l.75-19.55a4.58,4.58,0,0,1,4-4l20-1.12a3.09,3.09,0,0,0,2.8-2.82l.78-19.59a4.6,4.6,0,0,1,1.18-2.58l.55.51a3.82,3.82,0,0,0-1,2.13L183,233.56a3.82,3.82,0,0,1-3.48,3.52l-20,1.12a3.79,3.79,0,0,0-3.28,3.33l-.75,19.54a3.82,3.82,0,0,1-3.48,3.52l-19.31.41A3.86,3.86,0,0,0,130.61,266Z"/><path d="M119.79,255.21l-.52-.55a4.58,4.58,0,0,1,2.57-1.22l19.32-.41a3.08,3.08,0,0,0,2.78-2.83l.75-19.55a4.58,4.58,0,0,1,4-4l20-1.12a3.08,3.08,0,0,0,2.8-2.82l.78-19.59a4.6,4.6,0,0,1,1.18-2.58l.55.51a3.79,3.79,0,0,0-1,2.13l-.79,19.58a3.82,3.82,0,0,1-3.48,3.52l-20,1.12a3.79,3.79,0,0,0-3.28,3.33l-.75,19.54a3.82,3.82,0,0,1-3.48,3.52l-19.31.41A3.86,3.86,0,0,0,119.79,255.21Z"/><path d="M109.07,244.48l-.52-.54a4.55,4.55,0,0,1,2.57-1.22l19.32-.42a3.07,3.07,0,0,0,2.78-2.82l.75-19.55a4.57,4.57,0,0,1,4-4l20-1.12a3.07,3.07,0,0,0,2.79-2.82l.79-19.59a4.6,4.6,0,0,1,1.18-2.58l.55.51a3.79,3.79,0,0,0-1,2.13L161.48,212a3.82,3.82,0,0,1-3.48,3.52l-20,1.12a3.79,3.79,0,0,0-3.28,3.33L134,239.53a3.82,3.82,0,0,1-3.48,3.52l-19.31.41A3.84,3.84,0,0,0,109.07,244.48Z"/><path d="M189.92,163.19,135.4,108.68l54.52-54.52,54.51,54.52Zm-53.81-54.51,53.81,53.8,53.81-53.8L189.92,54.87Z"/><path d="M217,244.43,189.56,217,217,189.56,244.43,217ZM190.27,217,217,243.73,243.73,217,217,190.27Z"/><path d="M81.6,109,54.16,81.6,81.6,54.16,109,81.6ZM54.87,81.6,81.6,108.32,108.32,81.6,81.6,54.87Z"/><path d="M108.68,136.11,81.24,108.68l27.44-27.44,27.43,27.44ZM82,108.68l26.73,26.72,26.72-26.72L108.68,82Z"/><rect x="97.66" y="116.56" width="38.3" height="0.5" transform="translate(-48.38 116.81) rotate(-45)"/><rect x="92.25" y="111.15" width="38.3" height="0.5" transform="translate(-46.14 111.4) rotate(-45)"/><rect x="86.84" y="105.74" width="38.3" height="0.5" transform="translate(-43.9 105.99) rotate(-45)"/><rect x="81.43" y="100.33" width="38.3" height="0.5" transform="translate(-41.66 100.58) rotate(-45)"/><path d="M244.08,163.19l-27.43-27.43,27.43-27.44,27.43,27.44Zm-26.73-27.43,26.73,26.72,26.73-26.72L244.08,109Z"/><rect x="233.06" y="143.64" width="38.3" height="0.5" transform="translate(-27.87 220.48) rotate(-45)"/><rect x="227.65" y="138.23" width="38.3" height="0.5" transform="translate(-25.63 215.07) rotate(-45)"/><rect x="222.24" y="132.82" width="38.3" height="0.5" transform="translate(-23.39 209.66) rotate(-45)"/><rect x="216.83" y="127.41" width="38.3" height="0.5" transform="translate(-21.15 204.25) rotate(-45)"/><path d="M135.76,54.87,108.32,27.43,135.76,0l27.43,27.43ZM109,27.43l26.73,26.73,26.72-26.73L135.76.71Z"/><rect x="124.74" y="35.32" width="38.3" height="0.5" transform="translate(17 112.16) rotate(-45)"/><rect x="119.33" y="29.91" width="38.3" height="0.5" transform="translate(19.24 106.75) rotate(-45)"/><rect x="113.92" y="24.5" width="38.3" height="0.5" transform="translate(21.48 101.34) rotate(-45)"/><rect x="108.51" y="19.09" width="38.3" height="0.5" transform="translate(23.72 95.93) rotate(-45)"/><rect x="75.88" y="102.29" width="2" height="0.5" transform="translate(-49.99 84.39) rotate(-45)"/><path d="M80.46,99.32,80.1,99l2.7-2.69.35.35Zm5.39-5.39-.36-.35,2.7-2.7.35.35Zm5.38-5.39-.35-.35,2.7-2.7.35.35Zm5.39-5.39-.35-.35L99,80.1l.35.36Z"/><rect x="101.54" y="76.63" width="2" height="0.5" transform="translate(-24.33 95.03) rotate(-45)"/><rect x="70.47" y="96.88" width="2" height="0.5" transform="translate(-47.75 78.99) rotate(-45)"/><path d="M75.05,93.91l-.36-.35,2.7-2.7.35.35Zm5.39-5.39-.36-.35,2.7-2.7.35.35Zm5.38-5.39-.35-.35,2.7-2.7.35.36Zm5.39-5.39-.35-.35,2.7-2.7.35.36Z"/><rect x="96.13" y="71.22" width="2" height="0.5" transform="translate(-22.09 89.62) rotate(-45)"/><rect x="65.06" y="91.47" width="2" height="0.5" transform="translate(-45.51 73.58) rotate(-45)"/><path d="M69.64,88.5l-.36-.35,2.7-2.7.35.35ZM75,83.11l-.36-.35,2.7-2.7.35.36Zm5.39-5.39-.36-.35,2.7-2.7.35.36Zm5.38-5.39L85.45,72l2.7-2.7.35.36Z"/><rect x="90.72" y="65.81" width="2" height="0.5" transform="translate(-19.84 84.21) rotate(-45)"/><rect x="59.65" y="86.06" width="2" height="0.5" transform="translate(-43.27 68.17) rotate(-45)"/><path d="M64.23,83.09l-.36-.35,2.7-2.7.35.35Zm5.39-5.39-.36-.35,2.7-2.7.35.36ZM75,72.31,74.65,72l2.7-2.7.35.36Zm5.38-5.39L80,66.57l2.7-2.7.35.36Z"/><rect x="85.31" y="60.4" width="2" height="0.5" transform="translate(-17.6 78.8) rotate(-45)"/><rect x="173.6" y="86.36" width="0.75" height="76.78" transform="translate(-37.26 159.56) rotate(-45)"/><rect x="184.07" y="75.89" width="0.75" height="76.78" transform="translate(-26.79 163.9) rotate(-45)"/><rect x="195.06" y="64.9" width="0.75" height="76.78" transform="translate(-15.8 168.45) rotate(-45)"/><rect x="206.39" y="53.57" width="0.75" height="76.78" transform="translate(-4.47 173.14) rotate(-45)"/></g></g></svg>